# xmcd
#
# Track frame offsets:
#	150
#	23627
#	39047
#	54800
#	79105
#	97620
#	115785
#	134330
#	138657
#	166707
#	181345
#
# Disc length: 2522 seconds
#
# Revision: 2
# Processed by: cddbd v1.5.2PL0 Copyright (c) Steve Scherf et al.
# Submitted via: audiograbber 1.83.01
#
DISCID=7509d80b
DTITLE=Hagen Band, Nina - Nina Hagen Band
DYEAR=1978
DGENRE=Deutsch Rock
TTITLE0=Tv-Glotzer (White punks on dope)
TTITLE1=Rangehn
TTITLE2=Unbeschreiblich weiblich
TTITLE3=Auf'm Bahnhof Zoo
TTITLE4=Naturträne
TTITLE5=Superboy
TTITLE6=Heiss
TTITLE7=Fisch im Wasser
TTITLE8=Auf'm Friedhof
TTITLE9=Der Spinner
TTITLE10=Pank
EXTD=
EXTT0=
EXTT1=
EXTT2=
EXTT3=
EXTT4=
EXTT5=
EXTT6=
EXTT7=
EXTT8=
EXTT9=
EXTT10=
PLAYORDER=
